<svg id="cortex_light_blue_SVG" data-name="cortex light blue SVG" xmlns="http://www.w3.org/2000/svg" width="254.947" height="36.001" viewBox="0 0 254.947 36.001">
  <path id="Контур_1138" data-name="Контур 1138" d="M183.82,541.6a17.881,17.881,0,1,1-18.025,17.575A17.818,17.818,0,0,1,183.82,541.6M171,559.43a12.543,12.543,0,0,0,12.691,12.723,12.788,12.788,0,0,0,12.884-12.627,13.008,13.008,0,0,0-12.852-12.916A12.835,12.835,0,0,0,171,559.43" transform="translate(-120.332 -541.404)" fill="#fff"/>
  <path id="Контур_1139" data-name="Контур 1139" d="M749.4,577.889c-1.157,0-2.281-.064-3.438,0a4.958,4.958,0,0,1-4.37-1.992c-2.57-3.181-5.2-6.3-8-9.671-1.414,1.671-2.731,3.213-4.048,4.787-1.189,1.414-2.442,2.8-3.5,4.273a5.381,5.381,0,0,1-5.43,2.57c-.9-.1-1.831-.032-3.309-.032,2.635-3.245,4.948-6.137,7.293-9s4.723-5.655,7.133-8.579c-4.691-5.2-9.318-10.41-13.976-15.583,2.763-1.928,5.3-1.7,7.454.643,2.731,2.988,5.4,5.976,8.257,9.157,1.767-1.96,3.47-3.856,5.173-5.783.771-.867,1.51-1.735,2.249-2.635,2.378-2.763,4.691-3.374,8.675-2.056-4.787,5.462-9.478,10.828-14.233,16.258,4.787,5.719,9.542,11.374,14.265,17.061a2.027,2.027,0,0,1-.193.578" transform="translate(-494.643 -542.578)" fill="#fff"/>
  <path id="Контур_1140" data-name="Контур 1140" d="M24.3,559.022A18.079,18.079,0,0,1,49.746,542.54c1.125.482,1.96,1.125,1.606,2.442-.353,1.382-1.189,2.442-2.8,2.313a12.9,12.9,0,0,1-2.667-.642,12.776,12.776,0,0,0-13.848,19.856,12.634,12.634,0,0,0,13.944,4.723,16.513,16.513,0,0,1,2.506-.514,2.5,2.5,0,0,1,2.86,2.185c.321,1.414-.707,2.056-1.8,2.57-10.217,4.627-22.523-1.735-24.772-12.82-.225-1.221-.321-2.41-.482-3.631" transform="translate(-24.3 -540.997)" fill="#fff"/>
  <path id="Контур_1141" data-name="Контур 1141" d="M355,577.1c-3.213,1.992-5.494,1.767-7.775-.514-2.956-2.924-5.88-5.88-8.8-8.8-.964-.932-1.735-1.992-1.221-3.342.546-1.446,1.9-1.671,3.309-1.671,1.253.032,2.538.032,3.791-.032a7.011,7.011,0,0,0,6.683-6.683,6.73,6.73,0,0,0-5.783-6.876,54.946,54.946,0,0,0-6.908-.225,2.786,2.786,0,0,1-2.892-1.735,2.161,2.161,0,0,1,2.056-3.117c2.7,0,5.4.193,8.129.193,4.916,0,9.96,5.366,10.281,10.635a12.053,12.053,0,0,1-9.06,12.338c-.418.1-.868.225-1.51.385,3.309,3.213,6.426,6.265,9.7,9.446" transform="translate(-235.321 -543.103)" fill="#fff"/>
  <path id="Контур_1142" data-name="Контур 1142" d="M590.071,563.21c0,1.349-.032,2.41,0,3.5.064,1.382-.289,2.41-1.9,2.538a2.523,2.523,0,0,1-3.02-2.345c-.161-2.056-.225-4.145-.225-6.2-.032-4.53.032-9.093-.032-13.623-.032-2.281.707-3.149,3.052-3.149,5.655-.032,11.31,0,16.964-.032,1.446,0,2.506.321,2.538,2.056.032,1.863-.8,2.892-2.635,2.892-4.5.032-9,.032-13.494.032-.321,0-.675.032-1.125.064v9.189h3.566c3.245,0,6.458.032,9.671-.032,1.478-.032,2.378.546,2.474,1.992a2.445,2.445,0,0,1-1.928,2.859,12.014,12.014,0,0,1-2.41.225c-3.727.032-7.486.032-11.5.032" transform="translate(-404.781 -542.967)" fill="#fff"/>
  <path id="Контур_1143" data-name="Контур 1143" d="M489.16,582.45c0,3.438.1,6.908-.064,10.346a3.722,3.722,0,0,1-1.414,2.635,2.2,2.2,0,0,1-3.566-1.992c-.064-6.972-.032-13.912-.032-20.884v-.161a2.832,2.832,0,0,1,2.892-2.8c1.51.032,2.153.835,2.185,2.86v9.992Z" transform="translate(-336.352 -560.409)" fill="#fff"/>
  <path id="Контур_1144" data-name="Контур 1144" d="M469.265,543.9h7.968c1.864,0,2.57.578,2.6,2.185a2.564,2.564,0,0,1-2.57,2.86l-16.547.1c-2.281,0-2.988-.514-3.02-2.121-.032-1.992.932-2.956,3.117-2.988,2.8-.032,5.623-.032,8.45-.032" transform="translate(-318.45 -542.967)" fill="#fff"/>
  <path id="Контур_1145" data-name="Контур 1145" d="M597.442,640.475c-2.763,0-5.526.032-8.289-.032-.771-.032-1.9-.161-2.217-.643a5.211,5.211,0,0,1-.771-3.084c.032-.418,1.285-1.06,1.992-1.092,5.815-.1,11.631-.1,17.446-.064,1.8,0,2.635.932,2.667,2.7a1.935,1.935,0,0,1-2.185,2.249c-2.859-.032-5.751,0-8.643-.032Z" transform="translate(-405.629 -605.164)" fill="#fff"/>
</svg>
