<svg width="30" height="23" color="#AEF7FF" viewBox="0 0 48 39" fill="none" xmlns="http://www.w3.org/2000/svg">
<path d="M36.6578 19.1537H40.006C40.763 19.1537 41.3788 18.6533 41.3788 18.0383V15.3179C41.3788 14.7029 40.763 14.2026 40.006 14.2026H36.6578C35.9009 14.2026 35.2851 14.7029 35.2851 15.3179V18.0383C35.2851 18.6533 35.9009 19.1537 36.6578 19.1537V19.1537ZM36.6913 15.3451H39.9726V18.0111H36.6913V15.3451ZM36.6578 26.3901H40.006C40.763 26.3901 41.3788 25.8897 41.3788 25.2747V22.5543C41.3788 21.9393 40.763 21.4389 40.006 21.4389H36.6578C35.9009 21.4389 35.2851 21.9393 35.2851 22.5543V25.2747C35.2851 25.8897 35.9009 26.3901 36.6578 26.3901V26.3901ZM36.6913 22.5815H39.9726V25.2475H36.6913V22.5815ZM27.1032 19.1537H30.4514C31.2083 19.1537 31.8242 18.6533 31.8242 18.0383V15.3179C31.8242 14.7029 31.2083 14.2026 30.4514 14.2026H27.1032C26.3463 14.2026 25.7304 14.7029 25.7304 15.3179V18.0383C25.7304 18.6533 26.3463 19.1537 27.1032 19.1537ZM27.1367 15.3451H30.4179V18.0111H27.1367V15.3451ZM11.3422 28.3359H7.99396C7.23703 28.3359 6.62118 28.8363 6.62118 29.4513V32.1717C6.62118 32.7867 7.23703 33.2871 7.99396 33.2871H11.3422C12.0991 33.2871 12.7149 32.7867 12.7149 32.1717V29.4513C12.7149 28.8363 12.0991 28.3359 11.3422 28.3359ZM11.3087 32.1445H8.02743V29.4785H11.3087V32.1445ZM11.3422 14.2026H7.99396C7.23703 14.2026 6.62118 14.7029 6.62118 15.3179V18.0383C6.62118 18.6533 7.23703 19.1537 7.99396 19.1537H11.3422C12.0991 19.1537 12.7149 18.6533 12.7149 18.0383V15.3179C12.7149 14.7028 12.0991 14.2026 11.3422 14.2026ZM11.3087 18.0111H8.02743V15.3451H11.3087V18.0111ZM27.1032 26.2204H30.4514C31.2083 26.2204 31.8242 25.72 31.8242 25.105V22.3846C31.8242 21.7696 31.2083 21.2692 30.4514 21.2692H27.1032C26.3463 21.2692 25.7304 21.7696 25.7304 22.3846V25.105C25.7304 25.72 26.3463 26.2204 27.1032 26.2204ZM27.1367 22.4118H30.4179V25.0778H27.1367V22.4118ZM42.0771 2.61071H39.071V1.73725C39.071 0.779314 38.1118 0 36.9328 0H36.6099C35.431 0 34.4719 0.779314 34.4719 1.73725V2.61071H13.5281V1.73725C13.5281 0.779314 12.569 0 11.39 0H11.0671C9.88809 0 8.92893 0.779314 8.92893 1.73725V2.61071H5.92284C3.98175 2.61071 2.40253 3.89383 2.40253 5.47097V36.1436C2.40253 37.7186 3.97959 39 5.91815 39H42.082C44.0206 39 45.5976 37.7186 45.5976 36.1436V5.47097C45.5976 3.89383 44.0183 2.61071 42.0771 2.61071V2.61071ZM35.8781 1.73725C35.8781 1.40933 36.2064 1.14258 36.61 1.14258H36.9329C37.3365 1.14258 37.6648 1.40933 37.6648 1.73725V2.61071H35.8781V1.73725ZM10.3353 1.73725C10.3353 1.40933 10.6636 1.14258 11.0672 1.14258H11.3901C11.7937 1.14258 12.122 1.40933 12.122 1.73725V2.61071H10.3354V1.73725H10.3353ZM44.1913 36.1436C44.1913 37.0886 43.2451 37.8574 42.0819 37.8574H5.91806C4.7549 37.8574 3.80868 37.0886 3.80868 36.1436V36.14C4.39781 36.5006 5.13009 36.7148 5.92284 36.7148H34.4306C35.3709 36.7148 36.255 36.4173 36.9199 35.877L44.1913 29.969V36.1436ZM36.2024 34.8441C36.2575 34.6593 36.2875 34.4665 36.2875 34.2681V30.4546C36.2875 29.7355 37.0076 29.1504 37.8927 29.1504H42.5861C42.8303 29.1504 43.0676 29.1261 43.2951 29.0813L36.2024 34.8441ZM44.1913 10.7748H14.2312C13.8429 10.7748 13.5281 11.0306 13.5281 11.3461C13.5281 11.6616 13.8429 11.9174 14.2312 11.9174H44.1913V26.7037C44.1913 27.4229 43.4712 28.0079 42.5861 28.0079H37.8927C36.2322 28.0079 34.8813 29.1056 34.8813 30.4547V34.2681C34.8813 34.9873 34.1612 35.5723 33.2762 35.5723H5.92284C4.75715 35.5723 3.80878 34.8018 3.80878 33.8546V11.9174H11.4187C11.8071 11.9174 12.1219 11.6616 12.1219 11.3461C12.1219 11.0306 11.8071 10.7748 11.4187 10.7748H3.80868V5.47097C3.80868 4.52385 4.75706 3.75329 5.92274 3.75329H8.92893V5.43303C8.92893 6.39097 9.88809 7.17029 11.0671 7.17029C11.4554 7.17029 11.7702 6.9145 11.7702 6.599C11.7702 6.28349 11.4554 6.02771 11.0671 6.02771C10.6635 6.02771 10.3352 5.76095 10.3352 5.43303V3.75329H34.4719V5.43303C34.4719 6.39097 35.431 7.17029 36.61 7.17029C36.9983 7.17029 37.3131 6.9145 37.3131 6.599C37.3131 6.28349 36.9983 6.02771 36.61 6.02771C36.2064 6.02771 35.8781 5.76095 35.8781 5.43303V3.75329H42.0772C43.2429 3.75329 44.1913 4.52385 44.1913 5.47097V10.7748ZM11.3422 21.2692H7.99396C7.23703 21.2692 6.62118 21.7696 6.62118 22.3846V25.105C6.62118 25.72 7.23703 26.2204 7.99396 26.2204H11.3422C12.0991 26.2204 12.7149 25.72 12.7149 25.105V22.3846C12.7149 21.7695 12.0991 21.2692 11.3422 21.2692ZM11.3087 25.0778H8.02743V22.4118H11.3087V25.0778ZM17.5486 19.1537H20.8968C21.6537 19.1537 22.2696 18.6533 22.2696 18.0383V15.3179C22.2696 14.7029 21.6537 14.2026 20.8968 14.2026H17.5486C16.7917 14.2026 16.1758 14.7029 16.1758 15.3179V18.0383C16.1758 18.6533 16.7917 19.1537 17.5486 19.1537ZM17.5821 15.3451H20.8633V18.0111H17.5821V15.3451ZM27.1358 32.1445C27.1184 31.8416 26.8106 31.6004 26.4335 31.6004C26.0451 31.6004 25.7303 31.8562 25.7303 32.1717C25.7303 32.7867 26.3462 33.2871 27.1031 33.2871H30.4513C31.2082 33.2871 31.8241 32.7867 31.8241 32.1717V29.4513C31.8241 28.8363 31.2082 28.3359 30.4513 28.3359H27.1031C26.3462 28.3359 25.7303 28.8363 25.7303 29.4513V30.2359C25.7303 30.5514 26.0451 30.8072 26.4335 30.8072C26.8218 30.8072 27.1366 30.5514 27.1366 30.2359V29.4785H30.4178V32.1445H27.1358ZM17.5486 26.2204H20.8968C21.6537 26.2204 22.2696 25.72 22.2696 25.105V22.3846C22.2696 21.7696 21.6537 21.2692 20.8968 21.2692H17.5486C16.7917 21.2692 16.1758 21.7696 16.1758 22.3846V25.105C16.1758 25.72 16.7917 26.2204 17.5486 26.2204ZM17.5821 22.4118H20.8633V25.0778H17.5821V22.4118ZM17.5486 33.2871H20.8968C21.6537 33.2871 22.2696 32.7867 22.2696 32.1717V29.4513C22.2696 28.8363 21.6537 28.3359 20.8968 28.3359H17.5486C16.7917 28.3359 16.1758 28.8363 16.1758 29.4513V32.1717C16.1758 32.7867 16.7917 33.2871 17.5486 33.2871ZM17.5821 29.4785H20.8633V32.1445H17.5821V29.4785Z" fill="#707070"/>
</svg>
