<svg width="48" height="39" viewBox="0 0 48 39" fill="none" xmlns="http://www.w3.org/2000/svg">
<path d="M42.412 18.8047H44.5048C44.978 18.8047 45.3629 18.5224 45.3629 18.1755V16.6409C45.3629 16.294 44.978 16.0117 44.5048 16.0117H42.412C41.9388 16.0117 41.5539 16.294 41.5539 16.6409V18.1755C41.5539 18.5224 41.9388 18.8047 42.412 18.8047V18.8047ZM42.4329 16.6562H44.4839V18.1601H42.4329V16.6562ZM42.412 22.8867H44.5048C44.978 22.8867 45.3629 22.6044 45.3629 22.2575V20.7229C45.3629 20.376 44.978 20.0937 44.5048 20.0937H42.412C41.9388 20.0937 41.5539 20.376 41.5539 20.7229V22.2575C41.5539 22.6044 41.9388 22.8867 42.412 22.8867V22.8867ZM42.4329 20.7383H44.4839V22.2422H42.4329V20.7383ZM36.4397 18.8047H38.5325C39.0057 18.8047 39.3906 18.5224 39.3906 18.1755V16.6409C39.3906 16.294 39.0057 16.0117 38.5325 16.0117H36.4397C35.9665 16.0117 35.5816 16.294 35.5816 16.6409V18.1755C35.5816 18.5224 35.9665 18.8047 36.4397 18.8047ZM36.4606 16.6562H38.5116V18.1601H36.4606V16.6562ZM26.5879 23.9844H24.495C24.0219 23.9844 23.637 24.2666 23.637 24.6136V26.1482C23.637 26.4951 24.0219 26.7773 24.495 26.7773H26.5879C27.061 26.7773 27.446 26.4951 27.446 26.1482V24.6136C27.446 24.2666 27.061 23.9844 26.5879 23.9844ZM26.567 26.1328H24.516V24.6289H26.567V26.1328ZM26.5879 16.0117H24.495C24.0219 16.0117 23.637 16.294 23.637 16.6409V18.1755C23.637 18.5224 24.0219 18.8047 24.495 18.8047H26.5879C27.061 18.8047 27.446 18.5224 27.446 18.1755V16.6409C27.446 16.2939 27.061 16.0117 26.5879 16.0117ZM26.567 18.1601H24.516V16.6562H26.567V18.1601ZM36.4397 22.791H38.5325C39.0057 22.791 39.3906 22.5087 39.3906 22.1618V20.6272C39.3906 20.2803 39.0057 19.998 38.5325 19.998H36.4397C35.9665 19.998 35.5816 20.2803 35.5816 20.6272V22.1618C35.5816 22.5087 35.9665 22.791 36.4397 22.791ZM36.4606 20.6426H38.5116V22.1465H36.4606V20.6426ZM45.7994 9.47271H43.9204V8.97999C43.9204 8.43961 43.3208 8 42.5839 8H42.382C41.6451 8 41.0456 8.43961 41.0456 8.97999V9.47271H27.9543V8.97999C27.9543 8.43961 27.3547 8 26.6178 8H26.416C25.679 8 25.0795 8.43961 25.0795 8.97999V9.47271H23.2004C21.9871 9.47271 21 10.1965 21 11.0862V28.3887C21 29.2772 21.9858 30 23.1975 30H45.8025C47.0142 30 48 29.2772 48 28.3887V11.0862C47.9999 10.1965 47.0128 9.47271 45.7994 9.47271V9.47271ZM41.9246 8.97999C41.9246 8.79501 42.1298 8.64453 42.3821 8.64453H42.5839C42.8362 8.64453 43.0414 8.79501 43.0414 8.97999V9.47271H41.9246V8.97999ZM25.9585 8.97999C25.9585 8.79501 26.1637 8.64453 26.416 8.64453H26.6178C26.8701 8.64453 27.0753 8.79501 27.0753 8.97999V9.47271H25.9586V8.97999H25.9585ZM47.1209 28.3887C47.1209 28.9218 46.5295 29.3555 45.8024 29.3555H23.1975C22.4704 29.3555 21.8789 28.9218 21.8789 28.3887V28.3867C22.2472 28.5901 22.7049 28.7109 23.2004 28.7109H41.0198C41.6076 28.7109 42.1602 28.5431 42.5758 28.2383L47.1209 24.9056V28.3887ZM42.1273 27.6557C42.1618 27.5514 42.1805 27.4426 42.1805 27.3307V25.1795C42.1805 24.7739 42.6306 24.4438 43.1839 24.4438H46.1176C46.2702 24.4438 46.4186 24.4301 46.5608 24.4048L42.1273 27.6557ZM47.1209 14.0781H28.3938C28.1511 14.0781 27.9543 14.2224 27.9543 14.4004C27.9543 14.5783 28.1511 14.7226 28.3938 14.7226H47.1209V23.0636C47.1209 23.4693 46.6708 23.7994 46.1176 23.7994H43.1839C42.1459 23.7994 41.3015 24.4185 41.3015 25.1796V27.3307C41.3015 27.7364 40.8514 28.0664 40.2982 28.0664H23.2004C22.4718 28.0664 21.879 27.6318 21.879 27.0975V14.7226H26.6358C26.8785 14.7226 27.0753 14.5783 27.0753 14.4004C27.0753 14.2224 26.8785 14.0781 26.6358 14.0781H21.8789V11.0862C21.8789 10.5519 22.4717 10.1172 23.2004 10.1172H25.0795V11.0648C25.0795 11.6052 25.679 12.0448 26.416 12.0448C26.6587 12.0448 26.8555 11.9005 26.8555 11.7225C26.8555 11.5445 26.6587 11.4002 26.416 11.4002C26.1637 11.4002 25.9585 11.2498 25.9585 11.0648V10.1172H41.0456V11.0648C41.0456 11.6052 41.6451 12.0448 42.3821 12.0448C42.6248 12.0448 42.8216 11.9005 42.8216 11.7225C42.8216 11.5445 42.6248 11.4002 42.3821 11.4002C42.1298 11.4002 41.9246 11.2498 41.9246 11.0648V10.1172H45.7995C46.5281 10.1172 47.1209 10.5519 47.1209 11.0862V14.0781ZM26.5879 19.998H24.495C24.0219 19.998 23.637 20.2803 23.637 20.6272V22.1618C23.637 22.5087 24.0219 22.791 24.495 22.791H26.5879C27.061 22.791 27.446 22.5087 27.446 22.1618V20.6272C27.446 20.2803 27.061 19.998 26.5879 19.998ZM26.567 22.1465H24.516V20.6426H26.567V22.1465ZM30.4674 18.8047H32.5602C33.0334 18.8047 33.4183 18.5224 33.4183 18.1755V16.6409C33.4183 16.294 33.0334 16.0117 32.5602 16.0117H30.4674C29.9942 16.0117 29.6093 16.294 29.6093 16.6409V18.1755C29.6093 18.5224 29.9942 18.8047 30.4674 18.8047ZM30.4883 16.6562H32.5393V18.1601H30.4883V16.6562ZM36.4601 26.1328C36.4492 25.9619 36.2568 25.8259 36.021 25.8259C35.7783 25.8259 35.5815 25.9702 35.5815 26.1482C35.5815 26.4951 35.9665 26.7773 36.4396 26.7773H38.5325C39.0056 26.7773 39.3906 26.4951 39.3906 26.1482V24.6136C39.3906 24.2666 39.0056 23.9844 38.5325 23.9844H36.4396C35.9665 23.9844 35.5815 24.2666 35.5815 24.6136V25.0561C35.5815 25.2341 35.7783 25.3784 36.021 25.3784C36.2638 25.3784 36.4605 25.2341 36.4605 25.0561V24.6289H38.5115V26.1328H36.4601ZM30.4674 22.791H32.5602C33.0334 22.791 33.4183 22.5087 33.4183 22.1618V20.6272C33.4183 20.2803 33.0334 19.998 32.5602 19.998H30.4674C29.9942 19.998 29.6093 20.2803 29.6093 20.6272V22.1618C29.6093 22.5087 29.9942 22.791 30.4674 22.791ZM30.4883 20.6426H32.5393V22.1465H30.4883V20.6426ZM30.4674 26.7773H32.5602C33.0334 26.7773 33.4183 26.4951 33.4183 26.1482V24.6136C33.4183 24.2666 33.0334 23.9844 32.5602 23.9844H30.4674C29.9942 23.9844 29.6093 24.2666 29.6093 24.6136V26.1482C29.6093 26.4951 29.9942 26.7773 30.4674 26.7773ZM30.4883 24.6289H32.5393V26.1328H30.4883V24.6289Z" fill="#AEF7FF"/>
</svg>
