<svg id="cortex_light_blue_SVG" data-name="cortex light blue SVG" xmlns="http://www.w3.org/2000/svg" width="726.364" height="102.571" viewBox="0 0 726.364 102.571">
  <path id="Контур_1138" data-name="Контур 1138" d="M217.153,541.6c28.469.274,51.17,23.068,50.8,51.17a51.142,51.142,0,0,1-51.9,50.713c-27.919-.274-50.713-23.709-50.255-51.811A50.89,50.89,0,0,1,217.153,541.6m-36.524,50.8a35.737,35.737,0,0,0,36.158,36.249c20.139,0,36.616-16.019,36.707-35.975s-16.843-36.982-36.616-36.8a36.568,36.568,0,0,0-36.25,36.524" transform="translate(-36.271 -541.048)" fill="#fff"/>
  <path id="Контур_1139" data-name="Контур 1139" d="M808.748,641.8c-3.3,0-6.5-.183-9.795,0-5.218.275-9.154-1.648-12.449-5.675-7.323-9.063-14.829-17.942-22.793-27.553-4.028,4.76-7.781,9.154-11.534,13.639-3.387,4.028-6.957,7.964-9.978,12.175-3.845,5.492-8.7,8.147-15.47,7.323-2.563-.275-5.218-.091-9.429-.091,7.506-9.245,14.1-17.484,20.779-25.631s13.456-16.111,20.322-24.441c-13.365-14.829-26.546-29.659-39.82-44.4,7.872-5.492,15.1-4.852,21.237,1.831C747.6,557.491,755.2,566,763.344,575.066c5.035-5.584,9.886-10.985,14.738-16.477,2.2-2.472,4.3-4.943,6.408-7.506,6.774-7.872,13.365-9.612,24.715-5.859-13.639,15.562-27,30.849-40.552,46.319,13.639,16.294,27.187,32.4,40.643,48.607a5.771,5.771,0,0,1-.549,1.648" transform="translate(-82.933 -541.194)" fill="#fff"/>
  <path id="Контур_1140" data-name="Контур 1140" d="M24.3,592.353c.275-37.348,37.806-61.789,72.5-46.96,3.2,1.373,5.584,3.2,4.577,6.957-1.007,3.936-3.387,6.957-7.964,6.591a36.755,36.755,0,0,1-7.6-1.831,36.73,36.73,0,0,0-40,14.1c-8.788,12.358-8.513,29.933.549,42.474a35.995,35.995,0,0,0,39.728,13.456,47.049,47.049,0,0,1,7.14-1.465c4.485-.458,7.232,2.106,8.147,6.225.915,4.028-2.014,5.859-5.126,7.323C67.14,652.4,32.081,634.278,25.673,602.7c-.641-3.479-.915-6.866-1.373-10.344" transform="translate(-24.3 -540.997)" fill="#fff"/>
  <path id="Контур_1141" data-name="Контур 1141" d="M391.59,638.111c-9.154,5.675-15.653,5.035-22.153-1.465-8.421-8.33-16.752-16.752-25.082-25.082-2.746-2.655-4.943-5.675-3.478-9.52,1.556-4.119,5.4-4.76,9.429-4.76,3.57.091,7.232.091,10.8-.091a19.976,19.976,0,0,0,19.04-19.04c.549-9.246-6.591-18.216-16.477-19.589-6.5-.915-13.09-.549-19.681-.641-3.753-.092-6.774-1.19-8.239-4.943-1.739-4.669.915-8.879,5.859-8.879,7.689,0,15.379.549,23.159.549,14.005,0,28.377,15.287,29.293,30.3,1.007,16.2-10.252,31.581-25.814,35.151-1.19.274-2.472.641-4.3,1.1,9.429,9.154,18.308,17.85,27.645,26.913" transform="translate(-50.606 -541.259)" fill="#fff"/>
  <path id="Контур_1142" data-name="Контур 1142" d="M599.638,598.915c0,3.845-.092,6.866,0,9.978.183,3.936-.824,6.865-5.4,7.232-4.76.366-8.33-2.105-8.6-6.682-.458-5.859-.641-11.809-.641-17.667-.092-12.907.092-25.905-.092-38.813-.092-6.5,2.014-8.971,8.7-8.971,16.111-.092,32.222,0,48.333-.092,4.119,0,7.14.915,7.232,5.859.092,5.309-2.288,8.238-7.506,8.238-12.815.092-25.631.092-38.446.092-.915,0-1.922.091-3.2.183v26.18h10.161c9.246,0,18.4.091,27.553-.091,4.211-.092,6.774,1.556,7.049,5.675.275,4.028-1.282,7.14-5.492,8.147a34.227,34.227,0,0,1-6.866.641c-10.618.091-21.328.091-32.771.091" transform="translate(-71.731 -541.242)" fill="#fff"/>
  <path id="Контур_1143" data-name="Контур 1143" d="M498.561,606.215c0,9.795.275,19.681-.183,29.476a10.6,10.6,0,0,1-4.028,7.506c-5.035,3.2-10.161.275-10.161-5.675-.183-19.864-.091-39.637-.091-59.5v-.458c.549-4.943,3.753-8.055,8.238-7.964,4.3.092,6.133,2.38,6.225,8.147v28.469Z" transform="translate(-63.201 -543.417)" fill="#fff"/>
  <path id="Контур_1144" data-name="Контур 1144" d="M490.654,543.9h22.7c5.309,0,7.323,1.648,7.415,6.225.092,4.76-2.838,8.147-7.323,8.147l-47.143.275c-6.5,0-8.513-1.465-8.6-6.042-.091-5.675,2.655-8.422,8.879-8.513,7.964-.092,16.019-.092,24.075-.092" transform="translate(-60.969 -541.242)" fill="#fff"/>
  <path id="Контур_1145" data-name="Контур 1145" d="M618.326,649.6c-7.872,0-15.745.092-23.617-.092-2.2-.091-5.4-.458-6.316-1.831a14.849,14.849,0,0,1-2.2-8.788c.092-1.19,3.662-3.021,5.675-3.112,16.569-.275,33.137-.275,49.706-.183,5.126,0,7.506,2.655,7.6,7.689.092,4.211-1.922,6.408-6.225,6.408-8.147-.092-16.385,0-24.624-.092Z" transform="translate(-71.837 -548.996)" fill="#fff"/>
</svg>
