<svg xmlns="http://www.w3.org/2000/svg" width="51.364" height="51.402" viewBox="0 0 51.364 51.402">
  <path id="Вычитание_1" data-name="Вычитание 1" d="M-2386.9-2108.6h0a12.206,12.206,0,0,1-2.484-.285l-9.865-9.863a22.183,22.183,0,0,1-11.5,3.228,22.11,22.11,0,0,1-15.733-6.512,22.08,22.08,0,0,1-6.515-15.721,22.1,22.1,0,0,1,6.514-15.731,22.1,22.1,0,0,1,15.727-6.517,22.1,22.1,0,0,1,15.731,6.517,22.109,22.109,0,0,1,6.51,15.733,22.115,22.115,0,0,1-3.227,11.5l9.973,9.97c.22,1.538.362,4.38-1.16,6.135A4.991,4.991,0,0,1-2386.9-2108.6Zm-23.853-42.9a13.806,13.806,0,0,0-13.76,13.762,13.811,13.811,0,0,0,13.76,13.747,13.815,13.815,0,0,0,13.762-13.747A13.823,13.823,0,0,0-2410.754-2151.5Z" transform="translate(2433 2160)" fill="#feffff"/>
</svg>
